<?xml version="1.0" standalone="no"?>
<!DOCTYPE svg PUBLIC "-//W3C//DTD SVG 20010904//EN"
 "http://www.w3.org/TR/2001/REC-SVG-20010904/DTD/svg10.dtd">
<svg version="1.0" xmlns="http://www.w3.org/2000/svg"
 width="1280.000000pt" height="1280.000000pt" viewBox="0 0 1280.000000 1280.000000"
 preserveAspectRatio="xMidYMid meet">
<metadata>
Created by potrace 1.14, written by Peter Selinger 2001-2017
</metadata>
<g transform="translate(0.000000,1280.000000) scale(0.100000,-0.100000)"
fill="#000000" stroke="none">
<path d="M505 10864 c-104 -25 -110 -27 -115 -33 -3 -3 -27 -17 -55 -31 -65
-32 -66 -33 -149 -115 -91 -90 -143 -186 -174 -320 -10 -42 -9 -6987 1 -7055
9 -62 15 -95 17 -95 1 0 4 -13 6 -30 8 -46 41 -160 53 -184 7 -12 9 -21 7 -21
-8 0 52 -136 96 -220 38 -71 110 -180 160 -243 61 -76 269 -274 301 -286 6 -2
20 -12 31 -23 11 -10 32 -24 48 -30 15 -7 28 -16 28 -19 0 -17 317 -159 386
-172 10 -2 26 -7 35 -11 9 -4 27 -8 40 -10 13 -2 31 -6 39 -10 8 -3 31 -8 50
-10 19 -3 35 -5 35 -6 0 -6 109 -12 240 -14 145 -1 225 4 295 19 14 3 39 8 55
10 78 14 241 72 350 125 101 49 236 129 255 150 3 3 23 18 45 35 48 35 206
192 258 255 l36 45 33 -40 c44 -54 226 -234 268 -265 18 -14 39 -31 46 -37 7
-7 15 -13 19 -13 3 0 21 -11 38 -24 61 -45 263 -149 307 -158 8 -2 17 -6 20
-9 6 -7 136 -47 172 -53 15 -3 32 -7 37 -10 5 -3 26 -8 47 -10 22 -3 64 -9 94
-13 106 -15 410 -7 480 12 8 2 29 7 45 10 62 10 79 15 173 45 176 57 387 173
522 287 114 95 257 257 326 368 10 17 23 33 29 37 5 4 6 8 2 8 -5 0 0 12 10
27 25 37 94 173 88 173 -3 0 1 13 10 29 23 45 66 185 81 261 2 14 6 34 9 46 8
35 18 127 19 166 1 21 5 38 9 38 5 0 5 6 0 12 -9 17 -10 47 -1 76 4 12 4 22 0
22 -4 0 -7 21 -7 48 1 26 -5 88 -12 137 -7 50 -12 93 -13 97 0 4 16 6 35 4 19
-1 35 1 35 6 0 5 8 4 18 -1 11 -6 24 -6 32 -1 8 5 19 5 25 0 6 -5 17 -5 25 0
7 4 24 4 37 -1 14 -5 23 -5 23 1 0 6 9 6 24 0 15 -5 27 -5 34 2 6 6 12 6 16
-1 5 -7 15 -7 31 -1 14 5 25 6 25 2 0 -4 11 -7 25 -7 14 0 25 3 25 7 0 4 6 5
14 2 22 -9 136 -10 136 -2 0 4 11 3 25 -2 16 -6 25 -6 25 1 0 6 6 6 18 0 10
-5 24 -6 32 -1 8 5 21 5 30 0 9 -5 23 -4 32 1 11 6 19 6 23 -1 4 -7 13 -7 26
0 10 6 19 7 19 3 0 -10 63 -8 79 2 6 3 11 2 11 -4 0 -7 8 -7 25 -1 15 6 26 6
30 0 4 -7 13 -6 25 0 12 6 21 7 25 0 4 -6 15 -6 31 0 14 6 23 7 21 2 -3 -4 8
-7 24 -7 16 0 29 4 29 8 0 4 8 3 18 -2 10 -5 24 -6 32 -1 8 5 21 5 30 0 9 -5
23 -4 32 1 11 6 19 6 23 -1 4 -7 13 -7 26 0 10 6 19 7 19 3 0 -10 63 -8 79 2
6 3 11 2 11 -4 0 -7 8 -7 25 -1 15 6 26 6 30 0 4 -7 13 -6 25 0 12 6 21 7 25
0 4 -6 15 -6 31 0 14 6 23 7 21 2 -3 -4 8 -7 24 -7 16 0 29 4 29 8 0 4 8 3 18
-2 10 -5 24 -6 32 -1 8 5 21 5 30 0 9 -5 23 -4 32 1 11 6 19 6 23 -1 4 -7 13
-7 26 0 10 6 19 7 19 3 0 -10 63 -8 79 2 6 3 11 2 11 -4 0 -6 11 -6 30 -1 17
5 30 5 30 2 0 -8 79 -6 87 2 3 3 15 1 28 -4 14 -5 26 -5 33 2 6 6 12 6 16 -1
5 -8 13 -8 27 -1 12 7 19 7 19 1 0 -7 8 -7 23 -2 12 5 31 5 42 1 11 -4 25 -3
32 2 7 5 14 5 18 -2 4 -7 12 -7 26 0 12 7 19 7 19 1 0 -7 8 -7 23 -2 12 5 31
5 42 1 11 -4 25 -3 32 2 7 5 14 5 18 -2 4 -7 12 -7 26 0 12 7 19 7 19 1 0 -7
8 -7 23 -2 12 5 31 5 42 1 11 -4 25 -3 32 2 7 5 14 5 18 -2 4 -7 12 -7 26 0
12 7 19 7 19 1 0 -7 8 -7 23 -2 12 5 31 5 42 1 11 -4 25 -3 32 2 7 5 14 5 18
-2 4 -7 12 -7 26 0 12 7 19 7 19 1 0 -7 8 -7 23 -2 12 5 31 5 42 1 11 -4 25
-3 32 2 7 5 14 5 18 -2 4 -7 12 -7 26 0 12 7 19 7 19 1 0 -7 8 -7 23 -2 12 5
32 5 44 0 13 -5 25 -4 28 1 4 7 13 6 25 0 13 -7 21 -7 25 0 4 7 13 7 24 0 12
-6 22 -5 28 1 8 8 13 8 17 0 5 -7 15 -7 32 -1 15 6 23 6 19 1 -3 -6 6 -7 22
-2 16 4 36 5 46 3 18 -4 18 -20 2 -102 -3 -14 -7 -67 -10 -118 -3 -52 -8 -98
-11 -103 -3 -5 -2 -9 3 -9 4 0 8 -28 9 -63 0 -66 9 -163 19 -212 4 -16 7 -38
8 -48 1 -9 4 -17 7 -17 3 0 6 -12 7 -28 1 -15 14 -61 28 -102 15 -41 28 -82
29 -90 3 -25 128 -270 138 -270 4 0 8 -5 8 -12 0 -10 66 -106 116 -168 20 -25
194 -198 216 -215 76 -59 139 -105 145 -105 3 0 14 -6 22 -14 51 -46 341 -173
441 -193 44 -9 55 -11 55 -14 0 -3 70 -14 160 -26 112 -15 405 -7 475 12 8 2
29 7 45 10 62 10 79 15 173 45 53 18 130 48 172 68 41 20 77 36 80 37 3 0 19
9 35 21 17 11 37 23 45 26 19 7 164 111 204 146 207 184 330 355 456 637 18
38 66 202 75 250 2 17 7 41 10 55 3 14 8 50 11 80 4 30 7 60 8 65 0 6 6 13 11
17 7 5 6 8 -1 8 -8 0 -11 67 -3 106 1 5 1 11 0 14 -1 3 -4 41 -6 85 -6 101
-11 150 -17 161 -2 5 -4 20 -4 34 1 20 7 25 30 27 15 1 31 4 33 7 3 3 15 1 28
-4 14 -5 26 -5 33 2 6 6 12 6 16 -1 5 -8 13 -8 27 -1 12 7 19 7 19 1 0 -7 8
-7 23 -2 12 5 31 5 42 1 11 -4 25 -3 32 2 7 6 14 5 18 -2 3 -6 11 -8 16 -4 6
3 34 8 64 10 30 2 75 13 102 26 51 24 133 100 133 124 0 8 4 14 9 14 4 0 16
24 25 53 15 49 16 137 13 1008 -2 525 -6 968 -9 984 -4 17 -10 46 -13 65 -9
47 -13 65 -15 65 -1 0 -3 11 -6 25 -2 14 -17 57 -31 95 -15 39 -28 72 -28 75
-3 20 -96 184 -107 188 -4 2 -8 8 -8 14 0 6 -24 40 -52 76 -67 85 -1320 1338
-1382 1382 -25 18 -46 37 -46 42 0 4 -6 8 -13 8 -7 0 -23 9 -35 20 -12 12 -22
18 -22 15 0 -3 -24 9 -52 28 -29 18 -56 34 -60 36 -4 1 -29 11 -55 22 -59 26
-159 60 -193 65 -14 3 -32 7 -40 10 -39 14 -175 29 -267 29 -57 0 -103 4 -103
9 0 5 -6 4 -12 -1 -16 -10 -98 -10 -115 0 -7 5 -13 5 -13 0 0 -10 -91 -10
-108 1 -7 4 -12 4 -12 -1 0 -10 -91 -10 -108 1 -7 4 -12 4 -12 -1 0 -10 -91
-10 -108 1 -7 4 -12 4 -12 -1 0 -10 -91 -10 -108 1 -7 4 -12 3 -12 -2 0 -6 -9
-8 -21 -5 -11 3 -18 11 -15 18 2 6 0 18 -4 25 -5 8 -4 22 1 31 6 11 5 20 -1
24 -6 3 -6 15 0 30 6 15 6 27 0 30 -6 3 -6 15 0 30 6 15 6 27 0 30 -6 3 -6 15
0 30 6 15 6 27 0 30 -6 3 -6 15 0 30 6 15 6 27 0 30 -6 3 -6 15 0 30 6 15 6
27 0 30 -6 3 -6 15 0 30 6 15 6 27 0 30 -6 3 -6 15 0 30 6 15 6 27 0 30 -6 3
-6 15 0 30 5 13 6 27 1 29 -4 3 -5 25 -1 49 3 25 3 54 -1 65 -5 12 -4 24 1 27
6 3 6 15 0 29 -5 13 -6 27 -3 30 8 8 6 176 -1 183 -3 3 -1 13 4 22 5 10 5 23
0 31 -5 8 -5 21 0 30 5 9 5 22 0 30 -5 8 -5 21 0 30 5 9 5 22 0 30 -5 8 -5 21
0 30 5 9 5 22 0 30 -4 7 -4 24 0 36 6 14 5 26 0 29 -6 3 -6 15 0 30 6 15 6 27
0 30 -6 3 -6 15 0 30 6 15 6 27 0 30 -6 3 -6 15 0 30 6 15 6 27 0 30 -6 3 -6
15 0 30 6 15 6 27 0 30 -6 3 -6 15 0 30 6 15 6 27 0 30 -6 3 -6 15 0 30 6 15
6 27 0 30 -6 3 -6 15 0 30 6 15 6 27 0 30 -6 3 -6 15 0 30 6 15 6 27 0 30 -6
3 -6 15 0 30 6 15 6 27 0 30 -6 3 -6 15 0 29 5 13 7 26 4 29 -3 2 -7 44 -9 93
-2 49 -6 96 -8 104 -2 8 -9 33 -15 55 -6 22 -12 45 -12 50 -1 6 -9 18 -17 28
-9 9 -13 17 -10 17 17 0 -65 113 -128 176 -51 51 -93 82 -149 110 -43 21 -83
39 -90 41 -6 1 -38 9 -71 18 -53 13 -550 15 -4295 14 -3657 -1 -4243 -3 -4295
-15z m9185 -3504 c8 5 21 5 30 0 9 -5 22 -5 30 0 7 4 24 4 36 0 14 -6 26 -5
29 0 3 6 15 6 29 0 13 -5 27 -6 30 -3 7 8 101 7 114 0 4 -3 14 -2 22 3 8 5 21
5 30 0 9 -5 22 -5 30 0 8 5 21 5 31 -1 11 -6 20 -5 24 1 3 6 15 6 30 0 15 -6
27 -6 30 0 3 5 15 6 28 1 12 -5 34 -5 49 0 16 4 28 4 28 -1 0 -6 10 -6 24 0
13 5 27 6 30 3 3 -3 26 -8 51 -9 97 -8 114 -22 595 -502 l454 -454 -57 3 c-31
2 -57 2 -57 -1 0 -4 -147 -3 -215 2 -5 0 -32 0 -60 -1 -27 -1 -83 -1 -124 -2
-41 0 -78 -2 -82 -5 -4 -2 -10 0 -14 6 -4 6 -10 8 -15 5 -4 -3 -55 -5 -112 -5
-56 1 -112 1 -123 1 -11 0 -49 0 -85 0 -36 1 -72 1 -80 0 -8 0 -40 0 -70 0
-30 0 -59 0 -65 0 -39 0 -164 0 -180 0 -11 0 -49 0 -85 0 -36 1 -72 1 -80 0
-8 0 -40 0 -70 0 -30 0 -62 0 -70 0 -8 0 -49 0 -90 0 -41 0 -82 1 -91 0 -12 0
-18 11 -21 35 -2 18 0 35 5 37 4 1 4 15 -2 29 -7 18 -7 29 0 33 5 4 7 11 3 16
-7 13 -9 183 -1 195 3 6 2 16 -3 24 -5 8 -5 21 0 30 5 9 5 22 0 30 -5 8 -5 21
0 30 5 9 5 22 0 30 -5 8 -5 21 0 30 5 9 5 22 0 30 -4 7 -4 24 0 36 6 14 5 26
0 29 -6 3 -6 15 0 30 6 15 6 27 0 30 -6 3 -6 15 0 30 6 15 6 27 0 30 -6 3 -6
15 0 30 6 15 6 27 0 30 -6 3 -6 15 0 30 6 15 6 27 0 30 -6 3 -6 15 0 30 6 15
6 27 0 30 -28 17 31 60 61 45 8 -5 21 -5 29 0z m-7936 -3219 c26 -6 61 -18 77
-26 16 -9 30 -15 31 -14 7 3 78 -36 78 -43 0 -4 6 -8 14 -8 8 0 50 -35 93 -78
134 -133 196 -293 188 -487 -1 -49 -8 -103 -14 -118 -6 -16 -9 -33 -5 -38 3
-5 0 -9 -5 -9 -6 0 -11 -5 -11 -10 0 -6 -7 -27 -17 -48 -9 -20 -17 -39 -17
-42 -11 -42 -192 -240 -221 -240 -2 0 -21 -10 -42 -22 -20 -12 -42 -24 -48
-25 -5 -1 -37 -12 -70 -24 -88 -32 -268 -33 -372 -1 -54 17 -153 64 -153 73 0
5 -6 9 -14 9 -8 0 -50 35 -93 78 -88 87 -151 197 -176 308 -14 59 -16 234 -4
279 25 89 75 205 88 205 5 0 9 6 9 14 0 22 167 186 189 186 5 0 14 7 21 15 6
8 15 14 18 13 4 -1 25 7 47 17 49 23 46 22 120 39 67 16 212 14 289 -3z m2541
5 c78 -20 205 -74 205 -87 0 -5 7 -9 15 -9 8 0 49 -35 93 -78 60 -61 88 -98
120 -164 24 -46 45 -96 47 -109 3 -13 8 -35 11 -49 6 -26 15 -105 15 -130 0
-37 -14 -140 -21 -160 -1 -3 -3 -9 -4 -15 -6 -30 -73 -170 -96 -200 -32 -42
-153 -155 -166 -155 -8 0 -14 -4 -14 -9 0 -13 -117 -63 -205 -88 -52 -14 -222
-10 -285 6 -75 20 -190 70 -190 82 0 5 -7 9 -15 9 -8 0 -49 35 -93 78 -61 61
-88 98 -120 164 -24 47 -45 98 -48 114 -3 16 -8 38 -11 49 -19 59 -14 229 7
285 1 3 3 10 4 15 6 32 72 169 96 199 43 56 145 148 197 177 32 18 58 32 58
29 0 -2 11 3 25 10 29 17 28 16 105 34 56 13 220 15 270 2z m6455 -16 c105
-35 189 -88 267 -168 40 -40 73 -80 73 -88 0 -8 4 -14 9 -14 13 0 70 -133 85
-199 8 -36 12 -97 10 -157 -4 -118 -5 -123 -31 -191 -3 -10 -7 -21 -7 -24 -3
-18 -51 -109 -58 -109 -4 0 -8 -6 -8 -14 0 -13 -113 -134 -155 -166 -53 -40
-156 -85 -250 -108 -29 -7 -226 -6 -255 2 -14 3 -36 8 -49 11 -13 2 -62 23
-109 47 -66 32 -103 59 -164 120 -43 44 -78 85 -78 93 0 8 -4 15 -9 15 -9 0
-56 100 -72 153 -19 61 -21 73 -24 170 -3 86 2 127 28 222 2 6 9 20 15 33 7
12 10 22 7 22 -3 0 6 18 20 40 14 22 25 42 25 45 0 19 167 185 186 185 8 0 14
4 14 9 0 11 131 71 157 71 11 0 23 3 27 7 4 4 19 9 34 11 15 2 29 5 31 8 2 2
52 2 110 0 74 -3 126 -10 171 -26z"/>
</g>
</svg>
